<svg xmlns="http://www.w3.org/2000/svg" viewBox="0 0 97 62"><title>img-logo-small</title><g id="レイヤー_2" data-name="レイヤー 2"><g id="menu"><path d="M2,27.31H2.8L5,31V27.31h.57v4.42H4.76L2.51,28v3.75H2Z"/><path d="M6.73,27.32h.69V28H6.73Zm.07,1.34h.57v3.07H6.8Z"/><path d="M8.61,27.32h.58v1.79a1.12,1.12,0,0,1,1-.51,1.06,1.06,0,0,1,1,.49,1.47,1.47,0,0,1,.11.72v1.92h-.59V29.91c0-.27,0-.87-.66-.87a.79.79,0,0,0-.72.41,1.43,1.43,0,0,0-.1.65v1.63H8.61Z"/><path d="M12.84,30.19c0-1,.59-1.19,1-1.19.53,0,.89.4.89,1.17s-.5,1.23-.93,1.23C13.11,31.4,12.84,30.82,12.84,30.19Zm-.6,0a1.44,1.44,0,0,0,1.51,1.6,1.49,1.49,0,0,0,1.55-1.65,1.44,1.44,0,0,0-1.5-1.6A1.48,1.48,0,0,0,12.24,30.23Z"/><path d="M16.34,29v-.35h.57v.49a1,1,0,0,1,1-.56A1,1,0,0,1,19,29.64v2.09h-.59V29.78a.69.69,0,0,0-.16-.53.8.8,0,0,0-.54-.21.82.82,0,0,0-.81.92v1.77h-.57Z"/><path d="M22.63,27.31V30a1.27,1.27,0,0,0,.2.8,1.21,1.21,0,0,0,1,.44A1.09,1.09,0,0,0,25,30V27.31h.6V30a1.65,1.65,0,0,1-1.79,1.79,1.91,1.91,0,0,1-1.56-.7A1.82,1.82,0,0,1,22,30V27.31Z"/><path d="M26.89,31.73h.58V30a.81.81,0,0,1,.8-.92.8.8,0,0,1,.54.21.7.7,0,0,1,.17.53v1.95h.59V29.64a1,1,0,0,0-1.12-1.05,1,1,0,0,0-1,.56v-.49h-.58v3.07Z"/><path d="M30.67,28h.69v-.63h-.69Zm.06,3.78h.58V28.66h-.58Z"/><path d="M32.08,28.66h.64l1,2.43.95-2.43h.64L34,31.73h-.58Z"/><path d="M36.44,29.89a.82.82,0,0,1,.84-.9c.71,0,.76.61.75.9Zm2.19.41c0-.51,0-1.72-1.34-1.72a1.44,1.44,0,0,0-.84.22,1.61,1.61,0,0,0-.61,1.45c0,1,.46,1.57,1.43,1.57a1.35,1.35,0,0,0,1.06-.41,1,1,0,0,0,.26-.64H38a.68.68,0,0,1-.73.63c-.63,0-.89-.47-.88-1.1Z"/><path d="M39.61,29.28c0-.21,0-.42,0-.62h.58l0,.59a.83.83,0,0,1,.73-.61,1.86,1.86,0,0,1,.4,0v.57a.2.2,0,0,0-.11,0H41c-.69,0-.84.41-.84.93v1.64h-.59Z"/><path d="M42.41,30.82c0,.23.12.55.67.55a.63.63,0,0,0,.54-.19.51.51,0,0,0,.1-.29c0-.3-.21-.36-.68-.46-.64-.15-1.17-.28-1.17-.92s.48-.93,1.19-.93c.39,0,.93.11,1.11.48a.94.94,0,0,1,.08.44h-.59c0-.46-.38-.5-.59-.5s-.62,0-.62.44c0,.29.27.35.43.4.85.2,1,.25,1.22.42a.76.76,0,0,1,.23.57,1,1,0,0,1-.41.78,1.79,1.79,0,0,1-.91.2c-.63,0-1.21-.25-1.21-1Z"/><path d="M45.2,27.32h.69V28H45.2Zm.06,1.34h.58v3.07h-.58Z"/><path d="M46.6,29.07h.55v2.05c0,.5.25.65.77.65a4.45,4.45,0,0,0,.48,0v-.45a1.45,1.45,0,0,1-.27,0c-.42,0-.42-.26-.42-.41V29.07h.69v-.43h-.69v-.82l-.56.18v.64H46.6Z"/><path d="M50.61,31.75l-.44,1.14h-.59L50,31.72l-1.28-3.06h.65l1,2.42,1-2.42H52Z"/><path d="M57.23,28.5a.85.85,0,0,0-1-.76c-1.06,0-1.25,1.09-1.25,1.82s.24,1.73,1.25,1.73A1,1,0,0,0,57,31a.93.93,0,0,0,.21-.47h.67a1.5,1.5,0,0,1-1.65,1.24c-1.56,0-1.86-1.37-1.86-2.23s.36-2.32,1.94-2.32a1.41,1.41,0,0,1,1.58,1.25Z"/><path d="M59.14,30.19c0-1,.59-1.19,1-1.19.54,0,.89.4.89,1.17s-.49,1.23-.93,1.23C59.41,31.4,59.14,30.82,59.14,30.19Zm-.6,0a1.44,1.44,0,0,0,1.51,1.6,1.49,1.49,0,0,0,1.55-1.65,1.44,1.44,0,0,0-1.5-1.6A1.48,1.48,0,0,0,58.54,30.23Z"/><path d="M62.63,27.32h.58v4.41h-.58Z"/><path d="M64.45,31.73H65V27.32h-.58Z"/><path d="M66.63,29.89a.82.82,0,0,1,.84-.9c.71,0,.77.61.76.9Zm2.18.41c0-.51,0-1.72-1.33-1.72a1.44,1.44,0,0,0-.84.22A1.61,1.61,0,0,0,66,30.25c0,1,.47,1.57,1.43,1.57a1.33,1.33,0,0,0,1.06-.41,1,1,0,0,0,.26-.64h-.57a.66.66,0,0,1-.72.63c-.63,0-.9-.47-.89-1.1Z"/><path d="M71,31.24c-.7,0-.84-.62-.84-1.09S70.25,29,71,29a1,1,0,0,1,.66.27,1,1,0,0,1,.23.77c0,.56-.08.72-.2.88A.79.79,0,0,1,71,31.24ZM69.71,32c0,.41.07,1,1.29,1a1.36,1.36,0,0,0,1.29-.55,2.91,2.91,0,0,0,.14-1.27V28.66h-.56v.42a1.09,1.09,0,0,0-1-.47,1.37,1.37,0,0,0-1.37,1.55,1.73,1.73,0,0,0,.35,1.13,1.2,1.2,0,0,0,.95.38,1.07,1.07,0,0,0,1-.52c0,.83,0,1.42-.82,1.42-.54,0-.69-.26-.71-.6Z"/><path d="M74,30.3c0,.63.25,1.1.88,1.1a.67.67,0,0,0,.73-.63h.57a1,1,0,0,1-.27.64,1.32,1.32,0,0,1-1,.41c-1,0-1.43-.6-1.43-1.57A1.59,1.59,0,0,1,74,28.8a1.43,1.43,0,0,1,.83-.22c1.38,0,1.35,1.21,1.34,1.72Zm1.62-.41c0-.29,0-.9-.75-.9a.82.82,0,0,0-.84.9Z"/><path d="M79.65,30.19c0-1,.59-1.19,1-1.19.54,0,.89.4.89,1.17S81,31.4,80.57,31.4C79.92,31.4,79.65,30.82,79.65,30.19Zm-.6,0a1.44,1.44,0,0,0,1.51,1.6,1.5,1.5,0,0,0,1.56-1.65,1.45,1.45,0,0,0-1.51-1.6A1.48,1.48,0,0,0,79.05,30.23Z"/><path d="M84.67,27.74h-.34c-.46,0-.46.23-.46.44v.49h.71v.41h-.71v2.66H83.3V29.07h-.61v-.41h.61v-.35a1.27,1.27,0,0,1,.12-.74.88.88,0,0,1,.77-.33,3.2,3.2,0,0,1,.48,0Z"/><path d="M89.09,27.91l.81,2.17H88.23Zm-2.17,3.82h.64L88,30.58h2l.48,1.15h.67l-1.79-4.42h-.65Z"/><path d="M92,29.28c0-.21,0-.42,0-.62h.58l0,.59a.83.83,0,0,1,.73-.61,1.86,1.86,0,0,1,.4,0v.57a.2.2,0,0,0-.11,0H93.4c-.69,0-.84.41-.84.93v1.64H92Z"/><path d="M94,28.64h.55V28l.56-.18v.82h.69v.43h-.69v1.84c0,.15,0,.41.41.41a1.47,1.47,0,0,0,.28,0v.45a4.45,4.45,0,0,1-.48,0c-.53,0-.77-.15-.77-.65V29.07H94Z"/><path d="M38,0V21.25H59.2V0ZM58.06,20.11h-19V1.16h19Z"/><path d="M48.59,5.9c-5.42,0-9.8,2.12-9.8,4.73s4.38,4.74,9.8,4.74,9.8-2.12,9.8-4.74S54,5.9,48.59,5.9Zm0,8.33c-4.69,0-8.5-1.61-8.5-3.59S43.9,7,48.59,7s8.49,1.61,8.49,3.6S53.28,14.23,48.59,14.23Z"/><path d="M48.59,5.9a4.82,4.82,0,0,0-4.9,4.73,4.9,4.9,0,0,0,9.79,0A4.81,4.81,0,0,0,48.59,5.9Zm0,8.33a3.6,3.6,0,1,1,3.59-3.6A3.59,3.59,0,0,1,48.59,14.23Z"/><path d="M12.44,0H19l8,16.74V0h4.24V21.27H25L16.74,3.62V21.27h-4.3Z"/><path d="M69.9.06V13c0,2.33.18,5.24,4.62,5.24a4.72,4.72,0,0,0,4.12-1.85c.44-.65.68-1.47.68-3.62V.06h4.44V13.33c0,6.33-5,8.35-9.32,8.35-2.12,0-6-.47-8-3.67-1-1.62-1.09-3.27-1.09-5.24V.06Z"/><path d="M19,50.47l3.14-9.06,2.95,9.06Zm.3-12.68L11.91,58.5h4.35l1.59-4.59h8.42L27.8,58.5h4.58L25.21,37.79Z"/><path d="M45.21,47.29c0-.71-.11-2.86-.2-3.71H49.1l.09,2.85c.55-1.26,1.53-3.06,5.06-2.88v3.91c-4.41-.41-4.68,1.86-4.68,3.71V58.5H45.21Z"/><path d="M78.64,58.29a13.25,13.25,0,0,1-3.38.48c-4.39,0-4.39-2.77-4.39-4V46.61H68V43.73h2.85V40.81l4.33-1.58v4.5h3.53v2.88H75.2v6.71c0,1.36,0,2.21,2,2.21a10.73,10.73,0,0,0,1.47-.09Z"/><rect y="25" width="97" height="1"/><rect y="61" width="97" height="1"/><path d="M2,27.31H2.8L5,31V27.31h.57v4.42H4.76L2.51,28v3.75H2Z"/><path d="M6.73,27.32h.69V28H6.73Zm.07,1.34h.57v3.07H6.8Z"/><path d="M8.61,27.32h.58v1.79a1.12,1.12,0,0,1,1-.51,1.06,1.06,0,0,1,1,.49,1.47,1.47,0,0,1,.11.72v1.92h-.59V29.91c0-.27,0-.87-.66-.87a.79.79,0,0,0-.72.41,1.43,1.43,0,0,0-.1.65v1.63H8.61Z"/><path d="M12.84,30.19c0-1,.59-1.19,1-1.19.53,0,.89.4.89,1.17s-.5,1.23-.93,1.23C13.11,31.4,12.84,30.82,12.84,30.19Zm-.6,0a1.44,1.44,0,0,0,1.51,1.6,1.49,1.49,0,0,0,1.55-1.65,1.44,1.44,0,0,0-1.5-1.6A1.48,1.48,0,0,0,12.24,30.23Z"/><path d="M16.34,29v-.35h.57v.49a1,1,0,0,1,1-.56A1,1,0,0,1,19,29.64v2.09h-.59V29.78a.69.69,0,0,0-.16-.53.8.8,0,0,0-.54-.21.82.82,0,0,0-.81.92v1.77h-.57Z"/><path d="M22.63,27.31V30a1.27,1.27,0,0,0,.2.8,1.21,1.21,0,0,0,1,.44A1.09,1.09,0,0,0,25,30V27.31h.6V30a1.65,1.65,0,0,1-1.79,1.79,1.91,1.91,0,0,1-1.56-.7A1.82,1.82,0,0,1,22,30V27.31Z"/><path d="M26.89,31.73h.58V30a.81.81,0,0,1,.8-.92.8.8,0,0,1,.54.21.7.7,0,0,1,.17.53v1.95h.59V29.64a1,1,0,0,0-1.12-1.05,1,1,0,0,0-1,.56v-.49h-.58v3.07Z"/><path d="M30.67,28h.69v-.63h-.69Zm.06,3.78h.58V28.66h-.58Z"/><path d="M32.08,28.66h.64l1,2.43.95-2.43h.64L34,31.73h-.58Z"/><path d="M36.44,29.89a.82.82,0,0,1,.84-.9c.71,0,.76.61.75.9Zm2.19.41c0-.51,0-1.72-1.34-1.72a1.44,1.44,0,0,0-.84.22,1.61,1.61,0,0,0-.61,1.45c0,1,.46,1.57,1.43,1.57a1.35,1.35,0,0,0,1.06-.41,1,1,0,0,0,.26-.64H38a.68.68,0,0,1-.73.63c-.63,0-.89-.47-.88-1.1Z"/><path d="M39.61,29.28c0-.21,0-.42,0-.62h.58l0,.59a.83.83,0,0,1,.73-.61,1.86,1.86,0,0,1,.4,0v.57a.2.2,0,0,0-.11,0H41c-.69,0-.84.41-.84.93v1.64h-.59Z"/><path d="M42.41,30.82c0,.23.12.55.67.55a.63.63,0,0,0,.54-.19.51.51,0,0,0,.1-.29c0-.3-.21-.36-.68-.46-.64-.15-1.17-.28-1.17-.92s.48-.93,1.19-.93c.39,0,.93.11,1.11.48a.94.94,0,0,1,.08.44h-.59c0-.46-.38-.5-.59-.5s-.62,0-.62.44c0,.29.27.35.43.4.85.2,1,.25,1.22.42a.76.76,0,0,1,.23.57,1,1,0,0,1-.41.78,1.79,1.79,0,0,1-.91.2c-.63,0-1.21-.25-1.21-1Z"/><path d="M45.2,27.32h.69V28H45.2Zm.06,1.34h.58v3.07h-.58Z"/><path d="M46.6,29.07h.55v2.05c0,.5.25.65.77.65a4.45,4.45,0,0,0,.48,0v-.45a1.45,1.45,0,0,1-.27,0c-.42,0-.42-.26-.42-.41V29.07h.69v-.43h-.69v-.82l-.56.18v.64H46.6Z"/><path d="M50.61,31.75l-.44,1.14h-.59L50,31.72l-1.28-3.06h.65l1,2.42,1-2.42H52Z"/><path d="M57.23,28.5a.85.85,0,0,0-1-.76c-1.06,0-1.25,1.09-1.25,1.82s.24,1.73,1.25,1.73A1,1,0,0,0,57,31a.93.93,0,0,0,.21-.47h.67a1.5,1.5,0,0,1-1.65,1.24c-1.56,0-1.86-1.37-1.86-2.23s.36-2.32,1.94-2.32a1.41,1.41,0,0,1,1.58,1.25Z"/><path d="M59.14,30.19c0-1,.59-1.19,1-1.19.54,0,.89.4.89,1.17s-.49,1.23-.93,1.23C59.41,31.4,59.14,30.82,59.14,30.19Zm-.6,0a1.44,1.44,0,0,0,1.51,1.6,1.49,1.49,0,0,0,1.55-1.65,1.44,1.44,0,0,0-1.5-1.6A1.48,1.48,0,0,0,58.54,30.23Z"/><path d="M62.63,27.32h.58v4.41h-.58Z"/><path d="M64.45,31.73H65V27.32h-.58Z"/><path d="M66.63,29.89a.82.82,0,0,1,.84-.9c.71,0,.77.61.76.9Zm2.18.41c0-.51,0-1.72-1.33-1.72a1.44,1.44,0,0,0-.84.22A1.61,1.61,0,0,0,66,30.25c0,1,.47,1.57,1.43,1.57a1.33,1.33,0,0,0,1.06-.41,1,1,0,0,0,.26-.64h-.57a.66.66,0,0,1-.72.63c-.63,0-.9-.47-.89-1.1Z"/><path d="M71,31.24c-.7,0-.84-.62-.84-1.09S70.25,29,71,29a1,1,0,0,1,.66.27,1,1,0,0,1,.23.77c0,.56-.08.72-.2.88A.79.79,0,0,1,71,31.24ZM69.71,32c0,.41.07,1,1.29,1a1.36,1.36,0,0,0,1.29-.55,2.91,2.91,0,0,0,.14-1.27V28.66h-.56v.42a1.09,1.09,0,0,0-1-.47,1.37,1.37,0,0,0-1.37,1.55,1.73,1.73,0,0,0,.35,1.13,1.2,1.2,0,0,0,.95.38,1.07,1.07,0,0,0,1-.52c0,.83,0,1.42-.82,1.42-.54,0-.69-.26-.71-.6Z"/><path d="M74,30.3c0,.63.25,1.1.88,1.1a.67.67,0,0,0,.73-.63h.57a1,1,0,0,1-.27.64,1.32,1.32,0,0,1-1,.41c-1,0-1.43-.6-1.43-1.57A1.59,1.59,0,0,1,74,28.8a1.43,1.43,0,0,1,.83-.22c1.38,0,1.35,1.21,1.34,1.72Zm1.62-.41c0-.29,0-.9-.75-.9a.82.82,0,0,0-.84.9Z"/><path d="M79.65,30.19c0-1,.59-1.19,1-1.19.54,0,.89.4.89,1.17S81,31.4,80.57,31.4C79.92,31.4,79.65,30.82,79.65,30.19Zm-.6,0a1.44,1.44,0,0,0,1.51,1.6,1.5,1.5,0,0,0,1.56-1.65,1.45,1.45,0,0,0-1.51-1.6A1.48,1.48,0,0,0,79.05,30.23Z"/><path d="M84.67,27.74h-.34c-.46,0-.46.23-.46.44v.49h.71v.41h-.71v2.66H83.3V29.07h-.61v-.41h.61v-.35a1.27,1.27,0,0,1,.12-.74.88.88,0,0,1,.77-.33,3.2,3.2,0,0,1,.48,0Z"/><path d="M89.09,27.91l.81,2.17H88.23Zm-2.17,3.82h.64L88,30.58h2l.48,1.15h.67l-1.79-4.42h-.65Z"/><path d="M92,29.28c0-.21,0-.42,0-.62h.58l0,.59a.83.83,0,0,1,.73-.61,1.86,1.86,0,0,1,.4,0v.57a.2.2,0,0,0-.11,0H93.4c-.69,0-.84.41-.84.93v1.64H92Z"/><path d="M94,28.64h.55V28l.56-.18v.82h.69v.43h-.69v1.84c0,.15,0,.41.41.41a1.47,1.47,0,0,0,.28,0v.45a4.45,4.45,0,0,1-.48,0c-.53,0-.77-.15-.77-.65V29.07H94Z"/></g></g></svg>